<svg xmlns="http://www.w3.org/2000/svg" width="42" height="49" viewBox="0 0 42 49">
    <g fill="none">
        <g fill="#152945">
            <path d="M41.6 9.9C41.6 9.8 41.6 9.8 41.6 9.8 41.6 9.8 41.6 9.8 41.6 9.8 41.6 9.8 41.6 9.7 41.6 9.7 41.6 9.7 41.6 9.7 41.6 9.7 41.6 9.7 41.5 9.7 41.5 9.7 41.5 9.7 41.5 9.7 41.5 9.6 41.5 9.6 41.5 9.6 41.5 9.6 41.5 9.6 41.5 9.6 41.5 9.6 41.5 9.6 41.5 9.6 41.5 9.5 41.5 9.5 41.5 9.5 41.5 9.5 41.5 9.5 41.5 9.5 41.4 9.5 41.4 9.5 41.4 9.5 41.4 9.5 41.4 9.5 41.4 9.4 41.4 9.4L32.1 0.2C32.1 0.2 32.1 0.2 32.1 0.2 32.1 0.2 32.1 0.2 32 0.2 32 0.1 32 0.1 32 0.1 32 0.1 32 0.1 32 0.1 32 0.1 32 0.1 31.9 0.1 31.9 0.1 31.9 0.1 31.9 0.1 31.9 0.1 31.9 0.1 31.9 0.1 31.9 0.1 31.9 0.1 31.9 0.1 31.9 0 31.8 0 31.8 0 31.8 0 31.8 0 31.8 0 31.8 0 31.8 0 31.7 0 31.7 0 31.7 0 31.7 0 31.7 0 31.7 0 31.7 0 31.7 0 31.6 0 31.6 0L10 0C7.9 0 6.2 1.7 6.2 3.8L6.2 7.7 3 7.7C1.4 7.7 0 9 0 10.7L0 18.4C0 20 1.4 21.4 3 21.4L6.2 21.4 6.2 45.2C6.2 47.3 7.9 49 10 49L37.8 49C39.9 49 41.6 47.3 41.6 45.2L41.6 9.9C41.6 9.9 41.6 9.9 41.6 9.9ZM32.3 2.5L39.1 9.2 34.7 9.2C33.4 9.2 32.3 8.2 32.3 6.9L32.3 2.5ZM1.4 18.4L1.4 10.7C1.4 9.8 2.2 9.1 3 9.1L25.4 9.1C26.3 9.1 27 9.8 27 10.7L27 18.4C27 19.2 26.3 19.9 25.4 19.9L6.9 19.9C6.9 19.9 6.9 19.9 6.9 19.9 6.9 19.9 6.9 19.9 6.9 19.9L3 19.9C2.2 19.9 1.4 19.2 1.4 18.4ZM37.8 47.6L10 47.6C8.7 47.6 7.6 46.5 7.6 45.2L7.6 21.4 25.4 21.4C27.1 21.4 28.5 20 28.5 18.4L28.5 10.7C28.5 9 27.1 7.7 25.4 7.7L7.6 7.7 7.6 3.8C7.6 2.5 8.7 1.4 10 1.4L30.9 1.4 30.9 6.9C30.9 8.9 32.6 10.6 34.7 10.6L40.1 10.6 40.1 45.2C40.1 46.5 39.1 47.6 37.8 47.6Z"/>
            <path d="M17.7 30.7C17.7 30.3 18.1 29.9 18.5 29.9L19.2 29.9C19.6 29.9 19.9 29.6 19.9 29.2 19.9 28.8 19.6 28.5 19.2 28.5L18.5 28.5C17.3 28.5 16.3 29.5 16.3 30.7L16.3 33C16.3 33.4 16 33.8 15.5 33.8 15.1 33.8 14.8 34.1 14.8 34.5 14.8 34.9 15.1 35.2 15.5 35.2 16 35.2 16.3 35.5 16.3 36L16.3 38.2C16.3 39.5 17.3 40.5 18.5 40.5L19.2 40.5C19.6 40.5 19.9 40.1 19.9 39.7 19.9 39.4 19.6 39 19.2 39L18.5 39C18.1 39 17.7 38.7 17.7 38.2L17.7 36C17.7 35.4 17.5 34.9 17.1 34.5 17.5 34.1 17.7 33.5 17.7 33L17.7 30.7Z"/>
            <path d="M32.3 33.8C31.9 33.8 31.6 33.4 31.6 33L31.6 30.7C31.6 29.5 30.6 28.5 29.4 28.5L28.6 28.5C28.2 28.5 27.9 28.8 27.9 29.2 27.9 29.6 28.2 29.9 28.6 29.9L29.4 29.9C29.8 29.9 30.2 30.3 30.2 30.7L30.2 33C30.2 33.5 30.4 34.1 30.7 34.5 30.4 34.9 30.2 35.4 30.2 36L30.2 38.2C30.2 38.7 29.8 39 29.4 39L28.6 39C28.2 39 27.9 39.4 27.9 39.7 27.9 40.1 28.2 40.5 28.6 40.5L29.4 40.5C30.6 40.5 31.6 39.5 31.6 38.2L31.6 36C31.6 35.5 31.9 35.2 32.3 35.2 32.7 35.2 33 34.9 33 34.5 33 34.1 32.7 33.8 32.3 33.8Z"/>
            <path d="M20.8 36.5C20.6 36.5 20.4 36.6 20.2 36.7 20 36.9 19.9 37.1 19.9 37.3 19.9 37.5 20 37.8 20.2 37.9 20.4 38.1 20.6 38.2 20.8 38.2 21 38.2 21.2 38.1 21.4 37.9 21.6 37.8 21.7 37.5 21.7 37.3 21.7 37.1 21.6 36.9 21.4 36.7 21.2 36.6 21 36.5 20.8 36.5Z"/>
            <path d="M23.6 36.5C23.4 36.5 23.2 36.6 23 36.7 22.9 36.9 22.8 37.1 22.8 37.3 22.8 37.5 22.9 37.8 23 37.9 23.2 38.1 23.4 38.2 23.6 38.2 23.9 38.2 24.1 38.1 24.2 37.9 24.4 37.8 24.5 37.5 24.5 37.3 24.5 37.1 24.4 36.9 24.2 36.7 24.1 36.6 23.9 36.5 23.6 36.5Z"/>
            <path d="M27.1 36.5C26.8 36.5 26.6 36.6 26.5 36.7 26.3 36.9 26.2 37.1 26.2 37.3 26.2 37.5 26.3 37.8 26.5 37.9 26.6 38.1 26.8 38.2 27.1 38.2 27.3 38.2 27.5 38.1 27.7 37.9 27.8 37.8 27.9 37.5 27.9 37.3 27.9 37.1 27.8 36.9 27.7 36.7 27.5 36.6 27.3 36.5 27.1 36.5Z"/>
            <path d="M15.4 16.8L11.5 16.8C11.1 16.8 10.8 17.1 10.8 17.5 10.8 17.9 11.1 18.2 11.5 18.2L15.4 18.2C16.6 18.2 17.7 17.2 17.7 16 17.7 14.8 16.6 13.8 15.4 13.8L13.1 13.8C12.6 13.8 12.3 13.5 12.3 13 12.3 12.6 12.6 12.2 13.1 12.2L16.2 12.2C16.6 12.2 16.9 11.9 16.9 11.5 16.9 11.1 16.6 10.8 16.2 10.8L13.1 10.8C11.8 10.8 10.8 11.8 10.8 13 10.8 14.2 11.8 15.2 13.1 15.2L15.4 15.2C15.9 15.2 16.2 15.6 16.2 16 16.2 16.5 15.9 16.8 15.4 16.8Z"/>
            <path d="M23.4 16.8L19.5 16.8C19.1 16.8 18.8 17.1 18.8 17.5 18.8 17.9 19.1 18.2 19.5 18.2L23.4 18.2C24.6 18.2 25.6 17.2 25.6 16 25.6 14.8 24.6 13.8 23.4 13.8L21.1 13.8C20.6 13.8 20.2 13.5 20.2 13 20.2 12.6 20.6 12.2 21.1 12.2L24.1 12.2C24.5 12.2 24.9 11.9 24.9 11.5 24.9 11.1 24.5 10.8 24.1 10.8L21.1 10.8C19.8 10.8 18.8 11.8 18.8 13 18.8 14.2 19.8 15.2 21.1 15.2L23.4 15.2C23.8 15.2 24.2 15.6 24.2 16 24.2 16.5 23.8 16.8 23.4 16.8Z"/>
            <path d="M6.7 18.2C7.5 18.2 8.3 17.9 8.9 17.2 9.2 17 9.2 16.5 8.9 16.3 8.6 16 8.1 16 7.9 16.3 7.5 16.6 7.1 16.8 6.7 16.8L5.9 16.8C5 16.8 4.3 16.1 4.3 15.3L4.3 13.8C4.3 12.9 5 12.2 5.9 12.2L6.7 12.2C7.1 12.2 7.5 12.4 7.9 12.7 8.1 13 8.6 13.1 8.9 12.8 9.2 12.5 9.2 12.1 8.9 11.8 8.3 11.2 7.5 10.8 6.7 10.8L5.9 10.8C4.2 10.8 2.8 12.2 2.8 13.8L2.8 15.3C2.8 16.9 4.2 18.2 5.9 18.2L6.7 18.2Z"/>
        </g>
    </g>
</svg>
