<svg xmlns="http://www.w3.org/2000/svg" width="54" height="60" viewBox="0 0 54 60">
    <g fill="none">
        <g fill="#152945">
            <path d="M31.7 48.7C30.5 48.7 29.6 49.7 29.6 50.9 29.6 52.1 30.5 53 31.7 53 32.9 53 33.9 52.1 33.9 50.9 33.9 49.7 32.9 48.7 31.7 48.7ZM31.7 51.4C31.4 51.4 31.2 51.2 31.2 50.9 31.2 50.6 31.4 50.3 31.7 50.3 32.1 50.3 32.3 50.6 32.3 50.9 32.3 51.2 32.1 51.4 31.7 51.4Z"/>
            <path d="M27.8 5.2L35.6 5.2C36.1 5.2 36.5 4.8 36.5 4.3 36.5 3.9 36.1 3.5 35.6 3.5L27.8 3.5C27.4 3.5 27 3.9 27 4.3 27 4.8 27.4 5.2 27.8 5.2Z"/>
            <path d="M23.5 4.7C23.7 5 24 5.2 24.3 5.2 24.7 5.2 25 5 25.2 4.7 25.3 4.3 25.2 3.9 24.9 3.7 24.6 3.4 24.2 3.4 23.9 3.6 23.5 3.8 23.4 4.3 23.5 4.7Z"/>
            <path d="M42.6 7.8L20 7.8C18.1 7.8 16.5 9.4 16.5 11.3L16.5 44.3C16.5 46.3 18.1 47.8 20 47.8L42.6 47.8C44.5 47.8 46.1 46.3 46.1 44.3L46.1 17.2C46.1 16.8 45.7 16.4 45.2 16.4 44.7 16.4 44.3 16.8 44.3 17.2L44.3 44.3C44.3 45.3 43.5 46 42.6 46L20 46C19.1 46 18.3 45.3 18.3 44.3L18.3 11.3C18.3 10.4 19.1 9.6 20 9.6L42.6 9.6C43.5 9.6 44.3 10.4 44.3 11.3L44.3 13.7C44.3 14.2 44.7 14.6 45.2 14.6 45.7 14.6 46.1 14.2 46.1 13.7L46.1 11.3C46.1 9.4 44.5 7.8 42.6 7.8Z"/>
            <path d="M53.9 25.7C53.9 23 52 20.8 49.4 20.4L49.4 16.7C52 16.3 53.9 14.1 53.9 11.5 53.9 8.8 52 6.6 49.4 6.2L49.4 4.4C49.4 2 47.5 0 45 0L18.1 0C15.7 0 13.7 2 13.7 4.4L13.7 18.9C13.2 18.1 12.4 17.4 11.5 16.9 10.1 16.2 8.5 16.1 7.1 16.6 5.6 17.1 4.5 18.1 3.8 19.4 3.1 20.8 3 22.3 3.4 23.8 4.3 26.4 4.1 29.1 2.9 31.6 2.6 32-0.4 37.5 0.1 43.4 0.1 43.9 0.5 44.2 0.9 44.2 1 44.2 1 44.2 1 44.2 1.5 44.2 1.9 43.8 1.8 43.3 1.4 37.8 4.4 32.5 4.4 32.4 4.4 32.4 4.5 32.4 4.5 32.4 5.9 29.5 6.2 26.3 5.1 23.2 4.8 22.2 4.9 21.2 5.4 20.2 5.8 19.3 6.7 18.6 7.7 18.3 8.7 18 9.7 18 10.7 18.5 11.6 19 12.3 19.8 12.6 20.8 14.3 25.8 13.9 31.2 11.5 35.9 11.3 36.4 11.5 36.9 11.9 37.1 12.3 37.3 12.9 37.2 13.1 36.7 13.3 36.3 13.5 35.9 13.7 35.4L13.7 51.3C13.7 53.7 15.7 55.7 18.1 55.7L29.3 55.7C26.4 57.5 23 58.4 19.6 58.2 12.3 57.7 5.6 53.2 2.8 47 2.6 46.6 2.1 46.4 1.6 46.6 1.2 46.8 1 47.3 1.2 47.7 4.2 54.5 11.6 59.4 19.5 60 19.9 60 20.2 60 20.6 60 24.8 60 28.7 58.6 32 55.9L32.3 55.7 45 55.7C47.5 55.7 49.4 53.7 49.4 51.3L49.4 39.8C52 39.4 53.9 37.2 53.9 34.5 53.9 32.7 53 31.1 51.5 30.1 53 29.1 53.9 27.5 53.9 25.7L53.9 25.7ZM52.1 11.5C52.1 13.1 51 14.5 49.4 14.9L49.4 8C51 8.4 52.1 9.8 52.1 11.5ZM47.6 51.3C47.6 52.7 46.5 53.9 45 53.9L18.1 53.9C16.7 53.9 15.5 52.7 15.5 51.3L15.5 4.4C15.5 3 16.7 1.8 18.1 1.8L45 1.8C46.5 1.8 47.6 3 47.6 4.4L47.6 51.3ZM49.4 38L49.4 31.1C51 31.5 52.1 32.9 52.1 34.5 52.1 36.2 51 37.6 49.4 38L49.4 38ZM49.4 29.1L49.4 22.2C51 22.6 52.1 24 52.1 25.7 52.1 27.3 51 28.7 49.4 29.1Z"/>
        </g>
    </g>
</svg>
