<svg xmlns="http://www.w3.org/2000/svg" width="45" height="45" viewBox="0 0 45 45">
    <g fill="none">
        <g fill="#152945">
            <path d="M44 5.9C44 5.7 43.8 5.5 43.6 5.5 43.3 5.4 43.1 5.5 42.9 5.7L39.8 8.8C39.7 8.9 39.6 8.9 39.5 8.8L37.4 6.8C37.3 6.7 37.3 6.5 37.4 6.5L40.6 3.3C40.7 3.2 40.8 2.9 40.8 2.7 40.7 2.5 40.6 2.3 40.3 2.2 38 1.3 35.3 1.9 33.5 3.7 31.9 5.3 31.2 7.8 31.9 10L29.6 12.1C29.2 12 28.9 11.8 28.5 11.6L28.6 10.4C28.6 9.7 28.2 9.2 27.5 9.1L25.9 8.8C25.3 8.7 24.7 9.1 24.5 9.7L24.2 10.9C23.8 10.9 23.5 11 23.1 11L22.8 10.3 22.8 8.8C22.8 8.8 22.8 8.8 22.8 8.8L22.8 8.8C22.8 8.8 22.8 8.8 22.8 8.8 22.8 8.8 22.8 8.8 22.8 8.8 22.8 8.8 22.8 8.8 22.8 8.8 22.8 8.7 22.8 8.6 22.7 8.5 22.5 8.2 22.1 8.1 21.8 8.3 21.1 8.7 19.4 9 18.5 9 16.3 9 14.2 8.2 12.4 6.8L10.3 4.6C10.7 4 11.1 3.4 11.6 3 13.7 1.2 16.2 1.3 16.2 1.3 17.7 1.4 19.2 2.1 20.6 3.4 21.8 4.6 22.6 6.2 23.2 8.3 23.3 8.7 23.7 8.9 24 8.8 24.4 8.7 24.6 8.3 24.5 8 23.9 5.6 22.9 3.8 21.5 2.5 19.9 0.9 18.1 0.1 16.3 0 16.1 0 13.3-0.1 10.8 2 10.1 2.6 9.4 3.4 8.9 4.3 8.9 4.3 8.9 4.3 8.9 4.3 8.9 4.3 8.9 4.3 8.9 4.3 8.9 4.3 8.9 4.3 8.9 4.3 8.9 4.3 8.9 4.3 8.9 4.3 8.4 5.1 8 6 7.8 6.9 7.7 7.7 7.6 8.5 7.7 9.4 7.7 9.6 7.8 9.7 8 9.9 8.1 9.9 8.2 10 8.4 10 8.4 10 8.5 10 8.5 10 8.7 9.9 8.9 9.9 9 9.8L9 13.9C9 16.2 10.2 18.3 11.9 19.5L11.9 20.6C11.9 21.2 11.7 21.7 11.2 22 11.2 22 11.1 22 11.1 22.1 10.8 22.2 10.5 22.4 10.1 22.5L7.1 23.1C4.2 23.6 2.2 25.7 2.2 28.2L2.2 37.5C2.2 39.2 2.8 40.7 4 41.9L5.7 43.7 0.7 43.7C0.4 43.7 0.1 44 0.1 44.3 0.1 44.7 0.4 45 0.7 45L7.3 45 7.7 45 24.4 45 25.3 45 31 45C31.4 45 31.7 44.7 31.7 44.3 31.7 44 31.4 43.7 31 43.7L26.7 43.7 28.3 41.7C29.3 40.4 29.9 38.9 29.9 37.3L29.9 30.6C30.3 30.4 30.6 30.2 31 29.9L32 30.6C32.2 30.8 32.5 30.9 32.7 30.9 33.1 30.9 33.4 30.7 33.7 30.5L34.8 29.2C35.2 28.7 35.2 28 34.7 27.5L33.9 26.6C34.1 26.2 34.3 25.8 34.5 25.3L35.7 25.4C36.4 25.5 36.9 25 37 24.4L37.3 22.8C37.4 22.1 37 21.5 36.4 21.4L35.2 21C35.2 20.7 35.1 20.3 35.1 20L36.2 19.5C36.8 19.2 37.1 18.5 36.9 17.9L36.3 16.4C36.1 15.8 35.6 15.5 35 15.5L36.1 14.3C38.4 15 40.9 14.4 42.6 12.7 44.4 10.9 44.9 8.3 44 5.9ZM22.8 13.9L22.8 12.4C22.8 12.4 22.8 12.4 22.9 12.4 23.5 12.3 24.1 12.2 24.7 12.2 24.7 12.2 24.7 12.2 24.7 12.2 25 12.2 25.3 12 25.3 11.7L25.8 10.1 27.2 10.4 27.1 12C27.1 12.3 27.3 12.6 27.6 12.7 27.9 12.8 28.2 13 28.5 13.1L27.3 14.2C26.8 14.1 26.4 14 26 13.9 24.9 13.7 23.8 13.8 22.8 14 22.8 14 22.8 14 22.8 13.9ZM22.6 15.5C23.6 15.1 24.7 15 25.7 15.2 25.9 15.2 26 15.3 26.1 15.3L20.1 20.7C20.1 20.7 20.1 20.7 20.1 20.6L20.1 19.4C21.4 18.4 22.3 17 22.6 15.5ZM9.5 8.2C9.5 8.2 9.4 8.2 9.3 8.3 9.2 8.3 9.1 8.4 9 8.4 9 8 9.1 7.6 9.1 7.2 9.2 6.7 9.4 6.3 9.5 5.9 10 6.4 10.4 6.9 10.9 7.3 10.4 7.7 10 7.9 9.8 8 9.7 8.1 9.6 8.1 9.5 8.2ZM10.4 13.9L10.4 9.3C10.4 9.2 10.4 9.2 10.5 9.2 10.7 9.1 11.3 8.7 12 8.2 13.9 9.6 16.2 10.4 18.5 10.4 19.2 10.4 20.5 10.2 21.5 9.9L21.5 13.9C21.5 17 19 19.5 15.9 19.5 12.9 19.5 10.4 17 10.4 13.9ZM28.5 37.3L28.5 37.3C28.5 38.6 28.1 39.8 27.3 40.8L26.2 42.1 26.2 31.6C26.2 30.5 25.5 29.6 24.5 29.4 24.5 29.1 24.7 28.7 25 28.5L25.7 27.9C26 27.7 26 27.3 25.8 27 25.6 26.7 25.1 26.7 24.9 26.9L24.2 27.5C23.5 28 23.2 28.7 23.1 29.4L12.6 29.4C12.2 29.4 11.9 29.7 11.9 30.1 11.9 30.4 12.2 30.7 12.6 30.7L24.1 30.7C24.5 30.7 24.9 31.1 24.9 31.6L24.9 43.1C24.9 43.4 24.7 43.7 24.4 43.7L7.7 43.7C7.6 43.7 7.6 43.7 7.5 43.6L7.2 43.3C7.2 43.3 7.2 43.2 7.2 43.1L7.2 31.6C7.2 31.1 7.5 30.7 8 30.7L10 30.7C10.3 30.7 10.6 30.4 10.6 30.1 10.6 29.7 10.3 29.4 10 29.4L8.7 29.4C8.6 28.7 8.2 28 7.6 27.5L6.9 26.9C6.6 26.7 6.2 26.7 6 27 5.8 27.3 5.8 27.7 6.1 27.9L6.8 28.5C7.1 28.8 7.3 29.1 7.3 29.5 6.5 29.8 5.9 30.6 5.9 31.6L5.9 41.9 4.9 41C4 40.1 3.5 38.8 3.5 37.5L3.5 28.2C3.5 26.4 5.1 24.8 7.3 24.4L10.4 23.8C10.8 23.7 11.1 23.6 11.5 23.4 11.9 23.7 12.3 24 12.7 24.2 12.8 24.2 12.9 24.2 13 24.2 13.3 24.2 13.5 24.1 13.6 23.9 13.8 23.5 13.6 23.1 13.3 23 13 22.9 12.8 22.7 12.5 22.5 13 22 13.3 21.3 13.3 20.6L13.3 20.3C14.1 20.6 15 20.8 15.9 20.8 17 20.8 17.9 20.6 18.8 20.2L18.8 20.6C18.8 21.3 19.1 22 19.5 22.5 18.5 23.2 17.3 23.6 16 23.6 15.8 23.6 15.5 23.6 15.3 23.6 14.9 23.5 14.6 23.8 14.5 24.1 14.5 24.5 14.8 24.8 15.1 24.9 15.4 24.9 15.7 24.9 16 24.9 17.7 24.9 19.3 24.4 20.6 23.4 21 23.6 21.3 23.7 21.7 23.8L24.8 24.4C25.2 24.4 25.6 24.6 26 24.7 26 24.8 26.1 24.8 26.1 24.8 27.6 25.5 28.5 26.8 28.5 28.2L28.5 37.3 28.5 37.3ZM27.4 24L30.9 20.1C31.1 20.9 31.1 21.7 31 22.5 30.7 23.8 30.1 25 29.2 25.9 28.8 25.2 28.2 24.5 27.4 24ZM35.1 16.9L35.6 18.3 34.1 19C33.8 19.1 33.6 19.4 33.7 19.7 33.8 20.3 33.9 20.9 33.9 21.5 33.9 21.8 34.1 22.1 34.4 22.2L36 22.6 35.7 24.1 34.1 24C33.8 24 33.5 24.1 33.4 24.4 33.1 25.1 32.8 25.8 32.5 26.4 32.3 26.6 32.3 27 32.5 27.2L33.7 28.4 32.7 29.5 31.4 28.5C31.1 28.4 30.8 28.4 30.5 28.6 30.3 28.8 30.1 28.9 29.9 29.1L29.9 28.2C29.9 27.9 29.8 27.6 29.8 27.3 31.1 26.1 32 24.5 32.3 22.8 32.5 21.5 32.4 20.2 31.9 18.9L33.4 17.3C33.4 17.3 33.4 17.3 33.4 17.3L35.1 16.9ZM41.6 11.8C40.2 13.2 38.1 13.7 36.2 12.9 35.9 12.8 35.6 12.9 35.4 13.1L30.7 18.3C30.7 18.3 30.7 18.3 30.7 18.4L26.1 23.4C25.8 23.2 25.4 23.1 25 23.1L22 22.5C21.6 22.4 21.3 22.2 21 22.1 21 22 20.9 22 20.9 22 20.9 22 20.8 22 20.8 21.9L33.1 10.7C33.3 10.5 33.4 10.2 33.3 10 32.6 8.1 33.1 6 34.5 4.6 35.6 3.5 37.2 2.9 38.8 3.2L36.5 5.5C36.2 5.8 36 6.2 36 6.6 36 7 36.2 7.4 36.5 7.7L38.5 9.8C39.1 10.4 40.1 10.4 40.7 9.8L43.1 7.4C43.3 9 42.8 10.6 41.6 11.8Z"/>
            <path d="M15.9 16.6C16.6 16.6 17.3 16.3 17.9 15.8 18.1 15.6 18.1 15.1 17.9 14.9 17.6 14.6 17.2 14.6 16.9 14.9 16.6 15.1 16.3 15.3 15.9 15.3 15.5 15.3 15.1 15.1 14.9 14.9 14.6 14.6 14.2 14.6 13.9 14.9 13.7 15.1 13.7 15.6 13.9 15.8 14.4 16.3 15.1 16.6 15.9 16.6Z"/>
            <circle cx="13.6" cy="11.3" r="1"/>
            <circle cx="18" cy="11.3" r="1"/>
            <path d="M16.3 34.9C15 34.9 13.9 36 13.9 37.3 13.9 38.7 15 39.7 16.3 39.7 17.6 39.7 18.7 38.7 18.7 37.3 18.7 36 17.6 34.9 16.3 34.9ZM16.3 38.3C15.7 38.3 15.3 37.9 15.3 37.3 15.3 36.8 15.7 36.3 16.3 36.3 16.8 36.3 17.3 36.8 17.3 37.3 17.3 37.9 16.8 38.3 16.3 38.3Z"/>
        </g>
    </g>
</svg>
