<svg xmlns="http://www.w3.org/2000/svg" width="53" height="55" viewBox="0 0 53 55">
    <g fill="none">
        <g fill="#152945">
            <path d="M38.9 33.4L37.1 34.4C36.7 34.6 36.6 35.1 36.8 35.4 36.9 35.7 37.2 35.8 37.4 35.8 37.6 35.8 37.7 35.8 37.8 35.7L39.7 34.7C40 34.5 40.2 34 40 33.7 39.7 33.3 39.3 33.2 38.9 33.4L38.9 33.4Z"/>
            <path d="M38.9 31.1L37.1 32.1C36.7 32.3 36.6 32.8 36.8 33.2 36.9 33.4 37.2 33.6 37.4 33.6 37.6 33.6 37.7 33.5 37.8 33.5L39.7 32.5C40 32.3 40.2 31.8 40 31.4 39.7 31.1 39.3 30.9 38.9 31.1L38.9 31.1Z"/>
            <path d="M52.1 40.6C52.1 40.5 52.2 40.3 52.2 40.2L52.2 33.1C52.2 32.6 51.8 32.3 51.4 32.3 50.9 32.3 50.6 32.6 50.6 33.1L50.6 38.9 42.8 35.5 42.8 20.5 50.6 16.2 50.6 29.6C50.6 30 50.9 30.4 51.4 30.4 51.8 30.4 52.2 30 52.2 29.6L52.2 14.8C52.2 14.5 52 14.3 51.8 14.1L26.5 0.1C26.2 0 25.9 0 25.7 0.1L0.4 14.1C0.2 14.3 0 14.6 0 14.8L0 40.2C0 40.5 0.2 40.7 0.4 40.9L11.6 47.1C11.9 47.3 12.4 47.1 12.6 46.7 12.9 46.3 12.7 45.9 12.3 45.6L2.6 40.2 10.1 36.9 25.3 45.3 25.3 52.8 15.5 47.4C15.1 47.2 14.6 47.3 14.4 47.7 14.2 48.1 14.4 48.6 14.7 48.8L25.7 54.9C25.9 55 26.2 55 26.5 54.9L38 48.5C38.4 48.3 38.5 47.8 38.3 47.4 38.1 47 37.6 46.9 37.2 47.1L26.9 52.8 26.9 45.3 42.1 36.9 49.6 40.2 40.4 45.3C40 45.6 39.8 46.1 40.1 46.4 40.2 46.7 40.5 46.9 40.8 46.9 40.9 46.9 41 46.8 41.2 46.8L51.8 40.9C51.9 40.8 52 40.7 52.1 40.6L52.1 40.6ZM26.1 12.1L40.4 20 26.1 27.9 11.8 20 26.1 12.1ZM42 19.1L26.9 10.7 26.9 2.2 49.7 14.8 42 19.1ZM25.3 10.7L10.1 19.1 2.5 14.8 25.3 2.2 25.3 10.7ZM1.6 16.2L9.3 20.5 9.3 35.5 1.6 38.9 1.6 16.2ZM11 21.4L16.8 24.6 25.3 29.3 25.3 43.5 11 35.5 11 21.4ZM26.9 29.3L41.2 21.4 41.2 35.5 26.9 43.5 26.9 29.3Z"/>
        </g>
    </g>
</svg>
