<svg xmlns="http://www.w3.org/2000/svg" width="50" height="50" viewBox="0 0 50 50">
    <g fill="none">
        <g fill="#152945">
            <path d="M23.7 32.1C23.9 32.1 24.1 32.1 24.2 31.9L26.1 30.1C26.4 29.8 26.4 29.4 26.1 29.1 25.8 28.8 25.4 28.8 25.1 29.1L23.3 31C23 31.2 23 31.7 23.3 31.9 23.4 32.1 23.6 32.1 23.7 32.1Z"/>
            <path d="M33.4 25.4C33.8 25.8 34.3 26 34.7 26 35.2 26 35.7 25.8 36 25.4L38.1 23.4C38.5 23 38.6 22.6 38.6 22.1 38.6 21.6 38.5 21.1 38.1 20.8L36.6 19.3C36.5 19.1 36.5 18.9 36.6 18.7L40.6 14.7C42.3 13.1 42.3 10.4 40.6 8.7 39.8 7.9 38.8 7.5 37.6 7.5 36.5 7.5 35.4 7.9 34.6 8.7L30.6 12.7C30.5 12.9 30.2 12.9 30.1 12.7L28.6 11.2C28.2 10.9 27.8 10.7 27.3 10.7 26.8 10.7 26.3 10.9 26 11.2L23.9 13.3C23.2 14 23.2 15.2 23.9 15.9L25.1 17.1 13.1 29C12 30.2 11.5 31.7 11.7 33.3 11.7 33.5 11.6 33.7 11.4 33.8 10.6 34.1 9.9 34.6 9.3 35.3 7.4 37.2 6.9 39.8 8.2 41.1 8.7 41.6 9.4 41.9 10.2 41.9 11.4 41.9 12.9 41.2 14.1 40 14.7 39.4 15.2 38.7 15.5 38 15.6 37.8 15.8 37.7 16 37.7 17.6 37.9 19.2 37.4 20.3 36.2L22 34.5C22.3 34.2 22.3 33.8 22 33.5 21.8 33.2 21.3 33.2 21 33.5L19.3 35.2C18.5 36 17.4 36.4 16.2 36.2 15.4 36.1 14.5 36.6 14.2 37.4 13.9 38 13.6 38.5 13.1 39 11.9 40.2 10.1 40.9 9.3 40.1 8.5 39.3 9.2 37.4 10.3 36.3 10.8 35.8 11.4 35.4 12 35.2 12.7 34.8 13.2 34 13.1 33.1 13 32 13.3 30.9 14.1 30.1L26.1 18.1 31.3 23.3 27.5 27C27.2 27.3 27.2 27.7 27.5 28 27.7 28.2 27.8 28.2 28 28.2 28.2 28.2 28.4 28.2 28.5 28L32.3 24.3 33.4 25.4ZM24.9 14.3L27 12.3C27.1 12.2 27.2 12.2 27.3 12.2 27.4 12.2 27.5 12.2 27.5 12.3L29 13.8C29.8 14.5 30.9 14.5 31.6 13.8L35.7 9.7C36.2 9.2 36.9 8.9 37.6 8.9 38.4 8.9 39.1 9.2 39.6 9.7 40.7 10.8 40.7 12.6 39.6 13.7L35.6 17.7C34.9 18.4 34.9 19.6 35.6 20.3L37.1 21.8C37.2 21.9 37.2 22 37.2 22.1 37.2 22.2 37.2 22.3 37.1 22.3L35 24.4C34.9 24.6 34.6 24.6 34.5 24.4L24.9 14.9C24.8 14.7 24.8 14.5 24.9 14.3Z"/>
            <path d="M37.1 11.4C37.4 11.1 37.4 10.6 37.1 10.3 36.8 10 36.3 10 36 10.3L33.7 12.6C33.4 12.9 33.4 13.4 33.7 13.7 33.8 13.9 34 14 34.2 14 34.4 14 34.6 13.9 34.8 13.7L37.1 11.4Z"/>
            <path d="M26.1 21.3C25.8 21 25.3 21 25.1 21.3L16.8 29.6C16.5 29.9 16.5 30.4 16.8 30.6 16.9 30.8 17.1 30.8 17.3 30.8 17.5 30.8 17.6 30.8 17.8 30.6L26.1 22.3C26.4 22.1 26.4 21.6 26.1 21.3L26.1 21.3Z"/>
            <path d="M30.3 32.1L30.8 32.1C31.2 32.1 31.5 31.9 31.5 31.5 31.5 31.1 31.2 30.8 30.8 30.8L30.3 30.8C29.9 30.8 29.5 31.1 29.5 31.5 29.5 31.9 29.9 32.1 30.3 32.1Z"/>
            <path d="M36.6 30.8L32.3 30.8C31.8 30.8 31.5 31.1 31.5 31.5 31.5 31.9 31.8 32.1 32.3 32.1L36.6 32.1C37 32.1 37.3 31.9 37.3 31.5 37.3 31.1 37 30.8 36.6 30.8Z"/>
            <path d="M30.3 34.7L36.6 34.7C37 34.7 37.3 34.4 37.3 34.1 37.3 33.7 37 33.4 36.6 33.4L30.3 33.4C29.9 33.4 29.5 33.7 29.5 34.1 29.5 34.4 29.9 34.7 30.3 34.7Z"/>
            <path d="M37.3 36C37.3 35.7 37 35.4 36.6 35.4L30.3 35.4C29.9 35.4 29.5 35.7 29.5 36 29.5 36.4 29.9 36.7 30.3 36.7L36.6 36.7C37 36.7 37.3 36.4 37.3 36Z"/>
            <path d="M47.9 5.9C48.9 5.9 49.7 5.1 49.7 4.1L49.7 2C49.7 1.1 48.9 0.3 47.9 0.3L45.9 0.3C44.9 0.3 44.1 1.1 44.1 2L44.1 2.4 27.8 2.4 27.8 2C27.8 1.1 27 0.3 26 0.3L24 0.3C23 0.3 22.2 1.1 22.2 2L22.2 2.4 5.9 2.4 5.9 2C5.9 1.1 5.1 0.3 4.1 0.3L2.1 0.3C1.1 0.3 0.3 1.1 0.3 2L0.3 4.1C0.3 5.1 1.1 5.9 2.1 5.9L2.3 5.9 2.3 22.2 2.1 22.2C1.1 22.2 0.3 23 0.3 24L0.3 26C0.3 27 1.1 27.8 2.1 27.8L2.3 27.8 2.3 44.1 2.1 44.1C1.1 44.1 0.3 44.9 0.3 45.9L0.3 47.9C0.3 48.9 1.1 49.7 2.1 49.7L4.1 49.7C5.1 49.7 5.9 48.9 5.9 47.9L5.9 47.6 22.2 47.6 22.2 47.9C22.2 48.9 23 49.7 24 49.7L26 49.7C27 49.7 27.8 48.9 27.8 47.9L27.8 45.9C27.8 44.9 27 44.1 26 44.1L24 44.1C23 44.1 22.2 44.9 22.2 45.9L22.2 46.2 5.9 46.2 5.9 45.9C5.9 44.9 5.1 44.1 4.1 44.1L3.8 44.1 3.8 27.8 4.1 27.8C5.1 27.8 5.9 27 5.9 26L5.9 24C5.9 23 5.1 22.2 4.1 22.2L3.8 22.2 3.8 5.9 4.1 5.9C5.1 5.9 5.9 5.1 5.9 4.1L5.9 3.8 22.2 3.8 22.2 4.1C22.2 5.1 23 5.9 24 5.9L26 5.9C27 5.9 27.8 5.1 27.8 4.1L27.8 3.8 44.1 3.8 44.1 4.1C44.1 5.1 44.9 5.9 45.9 5.9L46.2 5.9 46.2 22.2 45.9 22.2C44.9 22.2 44.1 23 44.1 24L44.1 26C44.1 27 44.9 27.8 45.9 27.8L47.9 27.8C48.9 27.8 49.7 27 49.7 26L49.7 24C49.7 23 48.9 22.2 47.9 22.2L47.7 22.2 47.7 5.9 47.9 5.9ZM23.7 45.9C23.7 45.7 23.8 45.6 24 45.6L26 45.6C26.2 45.6 26.3 45.7 26.3 45.9L26.3 47.9C26.3 48.1 26.2 48.2 26 48.2L24 48.2C23.8 48.2 23.7 48.1 23.7 47.9L23.7 45.9ZM4.4 45.9L4.4 47.9C4.4 48.1 4.3 48.2 4.1 48.2L2.1 48.2C1.9 48.2 1.8 48.1 1.8 47.9L1.8 45.9C1.8 45.7 1.9 45.6 2.1 45.6L4.1 45.6C4.3 45.6 4.4 45.7 4.4 45.9ZM4.4 24L4.4 26C4.4 26.2 4.3 26.3 4.1 26.3L2.1 26.3C1.9 26.3 1.8 26.2 1.8 26L1.8 24C1.8 23.8 1.9 23.7 2.1 23.7L4.1 23.7C4.3 23.7 4.4 23.8 4.4 24ZM4.4 4.1C4.4 4.3 4.3 4.4 4.1 4.4L2.1 4.4C1.9 4.4 1.8 4.3 1.8 4.1L1.8 2C1.8 1.9 1.9 1.8 2.1 1.8L4.1 1.8C4.3 1.8 4.4 1.9 4.4 2L4.4 4.1ZM26.3 4.1C26.3 4.3 26.2 4.4 26 4.4L24 4.4C23.8 4.4 23.7 4.3 23.7 4.1L23.7 2C23.7 1.9 23.8 1.8 24 1.8L26 1.8C26.2 1.8 26.3 1.9 26.3 2L26.3 4.1ZM48.2 24L48.2 26C48.2 26.2 48.1 26.3 47.9 26.3L45.9 26.3C45.7 26.3 45.6 26.2 45.6 26L45.6 24C45.6 23.8 45.7 23.7 45.9 23.7L47.9 23.7C48.1 23.7 48.2 23.8 48.2 24ZM45.6 4.1L45.6 2C45.6 1.9 45.7 1.8 45.9 1.8L47.9 1.8C48.1 1.8 48.2 1.9 48.2 2L48.2 4.1C48.2 4.3 48.1 4.4 47.9 4.4L45.9 4.4C45.7 4.4 45.6 4.3 45.6 4.1Z"/>
            <path d="M46 36.8C45.4 36.6 44.7 36.7 44.2 37.2L41.9 39.5C41.6 39.8 41.6 40.2 41.9 40.5 42.1 40.8 42.6 40.8 42.9 40.5L45.2 38.2C45.3 38.1 45.4 38.1 45.5 38.1 45.6 38.2 45.7 38.2 45.7 38.4L45.7 45.4C45.7 45.5 45.5 45.7 45.4 45.7L38.4 45.7C38.2 45.7 38.2 45.6 38.1 45.5 38.1 45.4 38.1 45.3 38.2 45.2L40.7 42.7C41 42.4 41 42 40.7 41.7 40.4 41.4 40 41.4 39.7 41.7L37.2 44.2C36.7 44.7 36.6 45.4 36.8 46 37.1 46.7 37.7 47.1 38.4 47.1L45.4 47.1C46.3 47.1 47.1 46.3 47.1 45.4L47.1 38.4C47.1 37.7 46.7 37.1 46 36.8L46 36.8Z"/>
        </g>
    </g>
</svg>
