<svg xmlns="http://www.w3.org/2000/svg" width="53" height="46" viewBox="0 0 53 46">
    <g fill="none">
        <g fill="#152945">
            <path d="M49.3 4.8L38.9 4.8 38.9 1C38.9 0.5 38.5 0.2 38.1 0.2 37.6 0.2 37.2 0.5 37.2 1L37.2 4.8 27.4 4.8 27.4 1C27.4 0.5 27 0.2 26.6 0.2 26.1 0.2 25.7 0.5 25.7 1L25.7 4.8 15.9 4.8 15.9 1C15.9 0.5 15.5 0.2 15.1 0.2 14.6 0.2 14.2 0.5 14.2 1L14.2 4.8 3.3 4.8C1.5 4.8 0 6.2 0 8.1L0 42.5C0 44.4 1.5 45.8 3.3 45.8L49.3 45.8C51.1 45.8 52.6 44.4 52.6 42.5L52.6 8.1C52.6 6.2 51.1 4.8 49.3 4.8ZM50.9 42.5C50.9 43.5 50.2 44.2 49.3 44.2L3.3 44.2C2.4 44.2 1.6 43.5 1.6 42.5L1.6 8.1C1.6 7.2 2.4 6.4 3.3 6.4L14.2 6.4 14.2 9.2C14.2 9.7 14.6 10 15.1 10 15.5 10 15.9 9.7 15.9 9.2L15.9 6.4 25.7 6.4 25.7 9.2C25.7 9.7 26.1 10 26.6 10 27 10 27.4 9.7 27.4 9.2L27.4 6.4 37.2 6.4 37.2 9.2C37.2 9.7 37.6 10 38.1 10 38.5 10 38.9 9.7 38.9 9.2L38.9 6.4 49.3 6.4C50.2 6.4 50.9 7.2 50.9 8.1L50.9 42.5Z"/>
            <path d="M15.1 18.2C13.3 18.2 11.8 19.7 11.8 21.5 11.8 23.3 13.3 24.8 15.1 24.8 16.9 24.8 18.4 23.3 18.4 21.5 18.4 19.7 16.9 18.2 15.1 18.2ZM15.1 23.2C14.2 23.2 13.4 22.4 13.4 21.5 13.4 20.6 14.2 19.9 15.1 19.9 16 19.9 16.7 20.6 16.7 21.5 16.7 22.4 16 23.2 15.1 23.2Z"/>
            <path d="M26.6 18.2C24.8 18.2 23.3 19.7 23.3 21.5 23.3 23.3 24.8 24.8 26.6 24.8 28.4 24.8 29.9 23.3 29.9 21.5 29.9 19.7 28.4 18.2 26.6 18.2ZM26.6 23.2C25.7 23.2 24.9 22.4 24.9 21.5 24.9 20.6 25.7 19.9 26.6 19.9 27.5 19.9 28.2 20.6 28.2 21.5 28.2 22.4 27.5 23.2 26.6 23.2Z"/>
            <path d="M38.1 18.2C36.3 18.2 34.8 19.7 34.8 21.5 34.8 23.3 36.3 24.8 38.1 24.8 39.9 24.8 41.4 23.3 41.4 21.5 41.4 19.7 39.9 18.2 38.1 18.2ZM38.1 23.2C37.2 23.2 36.4 22.4 36.4 21.5 36.4 20.6 37.2 19.9 38.1 19.9 39 19.9 39.7 20.6 39.7 21.5 39.7 22.4 39 23.2 38.1 23.2Z"/>
            <path d="M15.1 28.1C13.3 28.1 11.8 29.6 11.8 31.4 11.8 33.2 13.3 34.7 15.1 34.7 16.9 34.7 18.4 33.2 18.4 31.4 18.4 29.6 16.9 28.1 15.1 28.1ZM15.1 33C14.2 33 13.4 32.3 13.4 31.4 13.4 30.5 14.2 29.7 15.1 29.7 16 29.7 16.7 30.5 16.7 31.4 16.7 32.3 16 33 15.1 33Z"/>
            <path d="M26.6 28.1C24.8 28.1 23.3 29.6 23.3 31.4 23.3 33.2 24.8 34.7 26.6 34.7 28.4 34.7 29.9 33.2 29.9 31.4 29.9 29.6 28.4 28.1 26.6 28.1ZM26.6 33C25.7 33 24.9 32.3 24.9 31.4 24.9 30.5 25.7 29.7 26.6 29.7 27.5 29.7 28.2 30.5 28.2 31.4 28.2 32.3 27.5 33 26.6 33Z"/>
            <path d="M41.7 28.3C41.4 27.9 40.7 27.9 40.4 28.3L37 31.7 35.6 30.3C35.3 30 34.6 30 34.3 30.3 33.9 30.7 33.9 31.3 34.3 31.7L36.3 33.7C36.5 33.9 36.7 34 37 34 37.2 34 37.5 33.9 37.7 33.7L41.7 29.6C42.1 29.3 42.1 28.7 41.7 28.3Z"/>
        </g>
    </g>
</svg>
