<svg xmlns="http://www.w3.org/2000/svg" width="50" height="49" viewBox="0 0 50 49">
    <g fill="none">
        <g fill="#152945">
            <path d="M13.9 13C11.8 13 10.1 14.7 10.1 16.8 10.1 18.9 11.8 20.6 13.9 20.6 15.9 20.6 17.6 18.9 17.6 16.8 17.6 14.7 15.9 13 13.9 13ZM13.9 19.2C12.6 19.2 11.5 18.1 11.5 16.8 11.5 15.5 12.6 14.5 13.9 14.5 15.2 14.5 16.2 15.5 16.2 16.8 16.2 18.1 15.2 19.2 13.9 19.2Z"/>
            <path d="M30 30.7C27.9 30.7 26.2 32.4 26.2 34.5 26.2 36.6 27.9 38.3 30 38.3 32.1 38.3 33.8 36.6 33.8 34.5 33.8 32.4 32.1 30.7 30 30.7ZM30 36.8C28.7 36.8 27.6 35.8 27.6 34.5 27.6 33.2 28.7 32.1 30 32.1 31.3 32.1 32.3 33.2 32.3 34.5 32.3 35.8 31.3 36.8 30 36.8Z"/>
            <path d="M15.4 29.2C13.7 29.2 12.4 30.5 12.4 32.2 12.4 33.8 13.7 35.2 15.4 35.2 17.1 35.2 18.4 33.8 18.4 32.2 18.4 30.5 17.1 29.2 15.4 29.2ZM15.4 33.8C14.5 33.8 13.8 33 13.8 32.2 13.8 31.3 14.5 30.6 15.4 30.6 16.3 30.6 17 31.3 17 32.2 17 33 16.3 33.8 15.4 33.8Z"/>
            <path d="M23.8 18.4C22.6 18.4 21.6 19.4 21.6 20.7 21.6 21.9 22.6 22.9 23.8 22.9 25.1 22.9 26.1 21.9 26.1 20.7 26.1 19.4 25.1 18.4 23.8 18.4ZM23.8 21.5C23.4 21.5 23 21.1 23 20.7 23 20.2 23.4 19.8 23.8 19.8 24.3 19.8 24.6 20.2 24.6 20.7 24.6 21.1 24.3 21.5 23.8 21.5Z"/>
            <path d="M39 31.1L38.3 29.5C38.1 29.2 37.7 29.1 37.3 29.2 37 29.4 36.8 29.8 37 30.2L37.8 31.7C37.9 32 38.1 32.1 38.4 32.1 38.5 32.1 38.6 32.1 38.7 32 39.1 31.9 39.2 31.4 39 31.1Z"/>
            <path d="M32.1 25.7C32 25.4 31.5 25.2 31.2 25.4L29.6 26.2C29.3 26.3 29.1 26.8 29.3 27.1 29.4 27.4 29.7 27.5 30 27.5 30.1 27.5 30.2 27.5 30.3 27.4L31.8 26.7C32.2 26.5 32.3 26.1 32.1 25.7Z"/>
            <path d="M9.9 24.9L9.1 23.4C9 23.1 8.5 22.9 8.2 23.1 7.8 23.3 7.7 23.7 7.8 24.1L8.6 25.6C8.7 25.8 9 26 9.3 26 9.4 26 9.5 26 9.6 25.9 9.9 25.7 10.1 25.3 9.9 24.9Z"/>
            <path d="M21.4 38C21.2 37.6 20.8 37.5 20.4 37.7L18.9 38.4C18.6 38.6 18.4 39 18.6 39.4 18.7 39.6 19 39.8 19.2 39.8 19.3 39.8 19.4 39.8 19.5 39.7L21.1 39C21.4 38.8 21.6 38.3 21.4 38Z"/>
            <path d="M21.3 8.6L20.5 7.9C20.2 7.6 19.8 7.6 19.5 7.9 19.2 8.2 19.2 8.6 19.5 8.9L20.3 9.7C20.4 9.8 20.6 9.9 20.8 9.9 20.9 9.9 21.1 9.8 21.3 9.7 21.5 9.4 21.5 8.9 21.3 8.6Z"/>
            <path d="M19.7 26.3L19 25.5C18.7 25.2 18.2 25.2 18 25.5 17.7 25.8 17.7 26.3 18 26.5L18.7 27.3C18.9 27.4 19 27.5 19.2 27.5 19.4 27.5 19.6 27.4 19.7 27.3 20 27 20 26.6 19.7 26.3Z"/>
            <path d="M27.7 41.4C27.3 41.4 26.9 41.7 26.9 42.1L26.9 42.9C26.9 43.3 27.3 43.6 27.7 43.6 28.1 43.6 28.4 43.3 28.4 42.9L28.4 42.1C28.4 41.7 28.1 41.4 27.7 41.4Z"/>
            <path d="M24.3 12.5C24.1 12.2 23.6 12.2 23.3 12.5L22.6 13.3C22.3 13.5 22.3 14 22.6 14.3 22.7 14.4 22.9 14.5 23.1 14.5 23.2 14.5 23.4 14.4 23.6 14.3L24.3 13.5C24.6 13.2 24.6 12.8 24.3 12.5Z"/>
            <path d="M41.3 4.4C40.5 3.6 39.4 3.4 38.3 3.7L35.9 4.4C34.8 4.8 34 5.7 33.8 6.8L33.5 8.1C33.3 9.6 34.1 11 35.5 11.5L37.4 12.2C37.8 12.3 38.1 12.4 38.5 12.4 39 12.4 39.4 12.3 39.9 12 40.6 11.6 41.2 10.9 41.4 10.1L42.1 7.3C42.4 6.3 42 5.2 41.3 4.4ZM40.7 7L40 9.7C39.9 10.2 39.6 10.6 39.2 10.8 38.8 11 38.3 11 37.9 10.8L36 10.1C35.3 9.9 34.8 9.1 35 8.4L35.2 7.1C35.3 6.5 35.7 6 36.3 5.8L38.7 5.1C38.9 5 39 5 39.2 5 39.6 5 40 5.2 40.3 5.4 40.7 5.8 40.8 6.4 40.7 7Z"/>
            <path d="M46.2 17.2C46.1 16.5 45.8 16 45.3 15.6L44.3 14.9C43.6 14.3 42.7 14.3 41.9 14.7L41 15.1C39.9 15.6 39.5 16.9 39.9 18L40.7 19.8C41 20.5 41.6 21 42.4 21.1 42.5 21.1 42.6 21.1 42.8 21.1 43.4 21.1 44 20.8 44.5 20.3L45.7 18.9C46.1 18.4 46.3 17.8 46.2 17.2ZM44.6 18L43.4 19.4C43.2 19.6 42.9 19.7 42.6 19.7 42.3 19.6 42.1 19.5 42 19.2L41.2 17.5C41.1 17.1 41.2 16.6 41.6 16.4L42.6 15.9C42.7 15.9 42.8 15.8 42.9 15.8 43.1 15.8 43.3 15.9 43.4 16L44.4 16.8C44.6 16.9 44.7 17.1 44.8 17.3 44.8 17.6 44.7 17.8 44.6 18Z"/>
            <path d="M46.8 8.4C45.6 8.4 44.6 9.4 44.6 10.7 44.6 11.9 45.6 12.9 46.8 12.9 48.1 12.9 49.1 11.9 49.1 10.7 49.1 9.4 48.1 8.4 46.8 8.4ZM46.8 11.5C46.4 11.5 46 11.1 46 10.7 46 10.2 46.4 9.9 46.8 9.9 47.3 9.9 47.7 10.2 47.7 10.7 47.7 11.1 47.3 11.5 46.8 11.5Z"/>
            <path d="M48.4 27.2C48 26.9 47.5 26.7 47.1 26.8 46.7 26.8 46.4 26.9 46.1 26.9 43 26.9 40.4 24.9 39.5 22 39.2 21.2 38.6 20.7 37.8 20.5 32.3 19.5 28.4 14.7 28.4 9.2 28.4 6.9 29.1 4.7 30.3 2.8 30.6 2.3 30.6 1.8 30.5 1.4 30.3 0.9 29.9 0.6 29.4 0.5 26.9 0 24.4-0.1 21.9 0.1 16.9 0.7 12.3 2.7 8.4 6.1 8.1 6.4 8.1 6.8 8.4 7.1 8.6 7.4 9.1 7.4 9.4 7.2 13 4 17.4 2.1 22.1 1.6 24.4 1.3 26.8 1.4 29.1 1.9 29.1 1.9 29.1 1.9 29.1 1.9 29.1 1.9 29.1 1.9 29.1 2 27.7 4.1 26.9 6.6 26.9 9.2 26.9 15.4 31.4 20.7 37.5 21.9 37.8 22 38 22.2 38.1 22.5 39.2 25.9 42.4 28.3 46.1 28.3 46.5 28.3 46.9 28.3 47.3 28.2 47.3 28.2 47.4 28.2 47.4 28.2 46.7 32.5 44.8 36.5 41.9 39.7 41.7 40 41.7 40.5 42 40.7 42.1 40.9 42.3 40.9 42.5 40.9 42.7 40.9 42.9 40.8 43 40.7 46 37.2 48 33 48.8 28.5 48.8 28 48.7 27.5 48.4 27.2Z"/>
            <path d="M40.8 41.9C40.6 41.6 40.1 41.6 39.8 41.8 35.6 45.5 30.2 47.6 24.6 47.6 21.4 47.6 18.2 46.9 15.3 45.6 12.5 44.4 10 42.6 7.8 40.3 5.7 38.1 4.1 35.5 3 32.6 1.9 29.6 1.4 26.4 1.6 23.1 1.9 18.1 3.9 13.2 7.3 9.3 7.5 9 7.5 8.5 7.2 8.3 6.9 8 6.5 8 6.2 8.3 2.6 12.4 0.4 17.7 0.1 23.1 -0.1 26.5 0.4 29.9 1.6 33.1 2.8 36.1 4.5 38.9 6.8 41.3 9 43.7 11.7 45.6 14.7 46.9 17.8 48.3 21.2 49 24.6 49 30.5 49 36.3 46.8 40.8 42.9 41.1 42.6 41.1 42.2 40.8 41.9Z"/>
        </g>
    </g>
</svg>
