<svg xmlns="http://www.w3.org/2000/svg" width="53" height="50" viewBox="0 0 53 50">
    <g fill="none">
        <g fill="#152945">
            <path d="M49.2 0L3.2 0C1.4 0 0 1.5 0 3.2L0 39.4C0 41.2 1.4 42.6 3.2 42.6L11.4 42.6C11.9 42.6 12.2 42.3 12.2 41.8 12.2 41.4 11.9 41.1 11.4 41.1L3.2 41.1C2.3 41.1 1.5 40.3 1.5 39.4L1.5 9.8 50.9 9.8 50.9 39.4C50.9 40.3 50.2 41.1 49.2 41.1L41 41.1C40.6 41.1 40.2 41.4 40.2 41.8 40.2 42.3 40.6 42.6 41 42.6L49.2 42.6C51 42.6 52.5 41.2 52.5 39.4L52.5 3.2C52.5 1.5 51 0 49.2 0ZM50.9 8.2L1.5 8.2 1.5 3.2C1.5 2.3 2.3 1.5 3.2 1.5L49.2 1.5C50.2 1.5 50.9 2.3 50.9 3.2L50.9 8.2Z"/>
            <path d="M4.1 4.1L4.1 4.1C3.6 4.1 3.3 4.5 3.3 4.9 3.3 5.3 3.6 5.6 4.1 5.6 4.5 5.6 4.8 5.3 4.8 4.9 4.8 4.5 4.5 4.1 4.1 4.1Z"/>
            <path d="M9 4.1L9 4.1C8.5 4.1 8.2 4.5 8.2 4.9 8.2 5.3 8.6 5.6 9 5.6 9.4 5.6 9.8 5.3 9.8 4.9 9.8 4.5 9.4 4.1 9 4.1Z"/>
            <path d="M6.5 4.1L6.5 4.1C6.1 4.1 5.7 4.5 5.7 4.9 5.7 5.3 6.1 5.6 6.5 5.6 6.9 5.6 7.3 5.3 7.3 4.9 7.3 4.5 6.9 4.1 6.5 4.1Z"/>
            <path d="M48.4 4.1L12.3 4.1C11.8 4.1 11.5 4.5 11.5 4.9 11.5 5.3 11.8 5.6 12.3 5.6L48.4 5.6C48.8 5.6 49.2 5.3 49.2 4.9 49.2 4.5 48.8 4.1 48.4 4.1Z"/>
            <path d="M36 27.2L36 22.9C36 17.5 31.6 13.1 26.2 13.1 20.8 13.1 16.4 17.5 16.4 22.9L16.4 27.2C15 27.5 14 28.8 14 30.3L14 37.7C14 44.5 19.5 50 26.2 50 33 50 38.5 44.5 38.5 37.7L38.5 30.3C38.5 28.8 37.4 27.5 36 27.2ZM18 22.9C18 18.4 21.7 14.7 26.2 14.7 30.8 14.7 34.5 18.4 34.5 22.9L34.5 27.1 32.7 27.1 32.7 22.9C32.7 19.4 29.8 16.4 26.2 16.4 22.6 16.4 19.7 19.4 19.7 22.9L19.7 27.1 18 27.1 18 22.9ZM26.2 48.5C20.3 48.5 15.5 43.6 15.5 37.7L15.5 30.3C15.5 29.4 16.3 28.6 17.2 28.6L27.1 28.6C27.5 28.6 27.8 28.3 27.8 27.9 27.8 27.5 27.5 27.1 27.1 27.1L21.2 27.1 21.2 22.9C21.2 20.2 23.5 18 26.2 18 29 18 31.2 20.2 31.2 22.9L31.2 27.1 30.3 27.1C29.9 27.1 29.6 27.5 29.6 27.9 29.6 28.3 29.9 28.6 30.3 28.6L35.3 28.6C36.2 28.6 37 29.4 37 30.3L37 37.7 37 37.7C37 43.6 32.1 48.5 26.2 48.5Z"/>
            <path d="M26.2 33.7C24.4 33.7 23 35.1 23 36.9 23 38.4 24 39.7 25.5 40L25.5 42.7C25.5 43.1 25.8 43.4 26.2 43.4 26.7 43.4 27 43.1 27 42.7L27 40C28.4 39.7 29.5 38.4 29.5 36.9 29.5 35.1 28 33.7 26.2 33.7ZM26.2 38.6C25.3 38.6 24.5 37.8 24.5 36.9 24.5 36 25.3 35.2 26.2 35.2 27.2 35.2 27.9 36 27.9 36.9 27.9 37.8 27.2 38.6 26.2 38.6Z"/>
        </g>
    </g>
</svg>
