<svg xmlns="http://www.w3.org/2000/svg" width="53" height="39" viewBox="0 0 53 39">
    <g fill="none">
        <path d="M49.2 10L3.2 10C1.4 10 0 11.5 0 13.2L0 38.4C0 38.4 0.5 38.4 1.5 38.4L1.5 19.8 50.9 19.8 50.9 38.4C50.9 38.4 52.5 38.4 52.5 38.4L52.5 13.2C52.5 11.5 51 10 49.2 10ZM50.9 18.2L1.5 18.2 1.5 13.2C1.5 12.3 2.3 11.5 3.2 11.5L49.2 11.5C50.2 11.5 50.9 12.3 50.9 13.2L50.9 18.2Z"
              fill="#152945"/>
        <path d="M4.1 14.1L4.1 14.1C3.6 14.1 3.3 14.5 3.3 14.9 3.3 15.3 3.6 15.6 4.1 15.6 4.5 15.6 4.8 15.3 4.8 14.9 4.8 14.5 4.5 14.1 4.1 14.1Z"
              fill="#152945"/>
        <path d="M9 14.1L9 14.1C8.5 14.1 8.2 14.5 8.2 14.9 8.2 15.3 8.6 15.6 9 15.6 9.4 15.6 9.8 15.3 9.8 14.9 9.8 14.5 9.4 14.1 9 14.1Z"
              fill="#152945"/>
        <path d="M6.5 14.1L6.5 14.1C6.1 14.1 5.7 14.5 5.7 14.9 5.7 15.3 6.1 15.6 6.5 15.6 6.9 15.6 7.3 15.3 7.3 14.9 7.3 14.5 6.9 14.1 6.5 14.1Z"
              fill="#152945"/>
        <path d="M48.4 14.1L12.3 14.1C11.8 14.1 11.5 14.5 11.5 14.9 11.5 15.3 11.8 15.6 12.3 15.6L48.4 15.6C48.8 15.6 49.2 15.3 49.2 14.9 49.2 14.5 48.8 14.1 48.4 14.1Z"
              fill="#152945"/>
        <circle cx="25.5" cy="12.5" r="12.5" style="fill:#F6EFF3;stroke-width:2;stroke:#152945"/>
        <path d="M25.7 11.4C24.4 11.4 23.2 12.5 23.2 13.8 23.2 15.2 24.4 16.3 25.7 16.3 27.1 16.3 28.2 15.2 28.2 13.8 28.2 12.5 27.1 11.4 25.7 11.4ZM25.7 14.7C25.3 14.7 24.9 14.3 24.9 13.8 24.9 13.4 25.3 13 25.7 13 26.2 13 26.5 13.4 26.5 13.8 26.5 14.3 26.2 14.7 25.7 14.7Z"
              fill="#152945"/>
        <path d="M32.1 15L31.3 14.2C31.3 14.1 31.3 14 31.3 13.8 31.3 13.7 31.3 13.6 31.3 13.4L32.1 12.6C32.4 12.4 32.5 11.9 32.3 11.6L30.9 9.2C30.7 8.9 30.3 8.7 30 8.9L28.8 9.2C28.6 9.1 28.4 8.9 28.1 8.8L27.9 7.6C27.8 7.3 27.5 7 27.1 7L24.3 7C24 7 23.6 7.3 23.5 7.6L23.3 8.8C23 8.9 22.8 9.1 22.6 9.2L21.4 8.9C21.1 8.7 20.7 8.9 20.5 9.2L19.1 11.6C18.9 11.9 19 12.4 19.3 12.6L20.2 13.4C20.1 13.6 20.1 13.7 20.1 13.8 20.1 14 20.1 14.1 20.2 14.2L19.3 15C19 15.3 18.9 15.7 19.1 16.1L20.5 18.4C20.7 18.8 21.1 18.9 21.4 18.8L22.6 18.4C22.8 18.6 23 18.7 23.3 18.8L23.5 20C23.6 20.4 24 20.7 24.3 20.7L27.1 20.7C27.5 20.7 27.8 20.4 27.9 20L28.1 18.8C28.4 18.7 28.6 18.6 28.8 18.4L30 18.8C30.3 18.9 30.7 18.8 30.9 18.4L32.3 16.1C32.5 15.7 32.4 15.3 32.1 15ZM29.9 17L28.9 16.7C28.7 16.7 28.4 16.7 28.2 16.9 27.9 17.1 27.5 17.4 27.1 17.5 26.9 17.6 26.7 17.8 26.6 18.1L26.4 19 25 19 24.8 18.1C24.7 17.8 24.6 17.6 24.3 17.5 23.9 17.4 23.6 17.1 23.2 16.9 23 16.7 22.7 16.7 22.5 16.7L21.6 17 20.9 15.8 21.6 15.2C21.8 15 21.9 14.7 21.8 14.4 21.8 14.2 21.8 14 21.8 13.8 21.8 13.6 21.8 13.4 21.8 13.2 21.9 12.9 21.8 12.7 21.6 12.5L20.9 11.8 21.6 10.6 22.5 10.9C22.7 11 23 11 23.2 10.8 23.6 10.5 23.9 10.3 24.3 10.2 24.6 10.1 24.7 9.8 24.8 9.6L25 8.6 26.4 8.6 26.6 9.6C26.7 9.8 26.9 10.1 27.1 10.2 27.5 10.3 27.9 10.5 28.2 10.8 28.4 11 28.7 11 28.9 10.9L29.9 10.6 30.6 11.8 29.8 12.5C29.6 12.7 29.5 12.9 29.6 13.2 29.6 13.4 29.6 13.6 29.6 13.8 29.6 14 29.6 14.2 29.6 14.4 29.5 14.7 29.6 15 29.8 15.2L30.6 15.8 29.9 17Z"
              fill="#152945"/>
    </g>
</svg>
