<svg xmlns="http://www.w3.org/2000/svg" width="51" height="55" viewBox="0 0 51 55">
    <g fill="none">
        <g fill="#152945">
            <path d="M49 2.6L42.8 2.6C42.3 2.6 42 2.9 42 3.4 42 3.8 42.3 4.2 42.8 4.2L49 4.2C49.2 4.2 49.3 4.3 49.3 4.4L49.3 36C49.3 36.4 49.7 36.8 50.1 36.8 50.6 36.8 50.9 36.4 50.9 36L50.9 4.4C50.9 3.4 50.1 2.6 49 2.6Z"/>
            <path d="M50.1 38.7C49.7 38.7 49.3 39.1 49.3 39.5L49.3 50.4C49.3 52 48 53.4 46.3 53.4 44.6 53.4 43.3 52 43.3 50.4L43.3 32.5C43.3 29.9 41.2 27.8 38.7 27.8 36.1 27.8 34.1 29.9 34.1 32.5L34.1 37.9C34.1 39.6 32.7 40.9 31 40.9 29.4 40.9 28 39.6 28 37.9L28 33.9 32.1 29.8C32.7 29.2 32.9 28.4 32.7 27.7L42.6 17.8C43.4 17 43.4 15.6 42.6 14.8L32 4.2 39.3 4.2C39.7 4.2 40.1 3.8 40.1 3.4 40.1 2.9 39.7 2.6 39.3 2.6L30.4 2.6 28.5 0.6C27.6-0.2 26.2-0.2 25.4 0.6L15.5 10.5C15.3 10.5 15.2 10.5 15 10.5 14.4 10.5 13.9 10.7 13.4 11.1L9.2 15.4C8.3 16.2 8.3 17.6 9.2 18.4L14.8 24.1C12.3 26.5 9.4 28.8 6.1 30.7 5.2 31.3 4.3 32 3.4 32.8 1.9 34.3 0.8 36.1 0.3 37.8 -0.2 39.6 0 41.2 1 42.2 1.7 42.9 2.6 43.2 3.7 43.2 5.2 43.2 7.1 42.5 8.9 41.1 9.2 40.9 9.3 40.4 9 40 8.8 39.6 8.3 39.6 7.9 39.8 5.6 41.6 3.2 42.1 2.2 41 1.6 40.5 1.5 39.5 1.9 38.2 2.3 36.8 3.3 35.3 4.6 33.9 5.3 33.2 6.1 32.6 7 32.1 10.4 30.1 13.4 27.8 16 25.3L18 27.3C15.4 29.8 13.2 32.9 11.1 36.3 10.9 36.7 10.6 37.1 10.3 37.5 10 37.9 10.1 38.4 10.4 38.7 10.6 38.8 10.7 38.8 10.9 38.8 11.1 38.8 11.4 38.7 11.5 38.5 11.9 38.1 12.3 37.6 12.5 37.1 14.5 33.8 16.7 30.9 19.1 28.4L24.8 34.1C25.2 34.5 25.7 34.7 26.3 34.7 26.4 34.7 26.4 34.7 26.4 34.7L26.4 37.9C26.4 40.5 28.5 42.5 31 42.5 33.6 42.5 35.7 40.5 35.7 37.9L35.7 32.5C35.7 30.8 37 29.5 38.7 29.5 40.3 29.5 41.7 30.8 41.7 32.5L41.7 50.4C41.7 52.9 43.8 55 46.3 55 48.9 55 50.9 52.9 50.9 50.4L50.9 39.5C50.9 39.1 50.6 38.7 50.1 38.7ZM26.5 1.8C26.8 1.6 27.1 1.6 27.3 1.8L41.5 15.9C41.7 16.1 41.7 16.5 41.5 16.7L31.8 26.4 28 22.6 29.7 21C30 20.6 30 20.1 29.7 19.8 29.3 19.5 28.8 19.5 28.5 19.8L26.9 21.4 21.2 15.7 22.8 14.1C23.1 13.8 23.1 13.3 22.8 13 22.5 12.7 22 12.7 21.7 13L20 14.6 19.2 13.7 25.6 7.3C25.9 7 25.9 6.5 25.6 6.2 25.3 5.9 24.8 5.9 24.5 6.2L18 12.6 16.9 11.4 26.5 1.8ZM25.9 32.9L10.3 17.3C10.1 17.1 10.1 16.7 10.3 16.5L14.6 12.2C14.7 12.1 14.8 12.1 15 12.1 15.1 12.1 15.3 12.1 15.4 12.2L31 27.8C31.2 28.1 31.2 28.4 31 28.6L26.7 32.9C26.6 33 26.5 33.1 26.3 33.1 26.2 33.1 26 33 25.9 32.9L25.9 32.9Z"/>
            <path d="M15.9 18.8C15.6 18.5 15.1 18.5 14.8 18.8 14.5 19.1 14.5 19.6 14.8 19.9L23.3 28.4C23.5 28.6 23.7 28.7 23.9 28.7 24.1 28.7 24.3 28.6 24.5 28.4 24.8 28.1 24.8 27.6 24.5 27.3L15.9 18.8Z"/>
            <path d="M45.5 19.6L45.5 19.6C45.1 19.6 44.7 19.9 44.7 20.4 44.7 20.8 45.1 21.2 45.5 21.2 46 21.2 46.4 20.8 46.4 20.4 46.4 19.9 46 19.6 45.5 19.6Z"/>
            <path d="M46.2 21.8C45.8 21.8 45.4 22.2 45.4 22.6 45.4 23 45.8 23.4 46.2 23.4L46.2 23.4C46.7 23.4 47 23 47 22.6 47 22.1 46.7 21.8 46.2 21.8 46.2 21.8 46.2 21.8 46.2 21.8L46.2 21.8Z"/>
            <path d="M41.2 24.3C40.8 24.3 40.4 24.6 40.4 25.1 40.4 25.5 40.8 25.9 41.2 25.9 41.7 25.9 42 25.5 42 25.1 42 24.6 41.7 24.3 41.2 24.3L41.2 24.3Z"/>
        </g>
    </g>
</svg>
