<svg xmlns="http://www.w3.org/2000/svg" width="50" height="50" viewBox="0 0 50 50">
    <g fill="none">
        <g fill="#152945">
            <path d="M48.2 5.6C49.2 5.6 50 4.8 50 3.9L50 1.7C50 0.8 49.2 0 48.2 0L46.1 0C45.1 0 44.4 0.8 44.4 1.7L44.4 2.1 27.8 2.1 27.8 1.7C27.8 0.8 27 0 26.1 0L23.9 0C23 0 22.2 0.8 22.2 1.7L22.2 2.1 5.7 2.1 5.7 1.7C5.7 0.8 4.9 0 3.9 0L1.8 0C0.8 0 0 0.8 0 1.7L0 3.9C0 4.8 0.8 5.6 1.8 5.6L2.1 5.6 2.1 22.2 1.8 22.2C0.8 22.2 0 23 0 23.9L0 26.1C0 27 0.8 27.8 1.8 27.8L2.1 27.8 2.1 44.4 1.8 44.4C0.8 44.4 0 45.2 0 46.1L0 48.3C0 49.2 0.8 50 1.8 50L3.9 50C4.9 50 5.7 49.2 5.7 48.3L5.7 47.9 22.2 47.9 22.2 48.3C22.2 49.2 23 50 23.9 50L26.1 50C27 50 27.8 49.2 27.8 48.3L27.8 46.1C27.8 45.2 27 44.4 26.1 44.4L23.9 44.4C23 44.4 22.2 45.2 22.2 46.1L22.2 46.5 5.7 46.5 5.7 46.1C5.7 45.2 4.9 44.4 3.9 44.4L3.5 44.4 3.5 27.8 3.9 27.8C4.9 27.8 5.7 27 5.7 26.1L5.7 23.9C5.7 23 4.9 22.2 3.9 22.2L3.5 22.2 3.5 5.6 3.9 5.6C4.9 5.6 5.7 4.8 5.7 3.9L5.7 3.5 22.2 3.5 22.2 3.9C22.2 4.8 23 5.6 23.9 5.6L26.1 5.6C27 5.6 27.8 4.8 27.8 3.9L27.8 3.5 44.4 3.5 44.4 3.9C44.4 4.8 45.1 5.6 46.1 5.6L46.5 5.6 46.5 22.2 46.1 22.2C45.1 22.2 44.4 23 44.4 23.9L44.4 26.1C44.4 27 45.1 27.8 46.1 27.8L48.2 27.8C49.2 27.8 50 27 50 26.1L50 23.9C50 23 49.2 22.2 48.2 22.2L47.9 22.2 47.9 5.6 48.2 5.6ZM23.7 46.1C23.7 46 23.8 45.9 23.9 45.9L26.1 45.9C26.2 45.9 26.3 46 26.3 46.1L26.3 48.3C26.3 48.4 26.2 48.5 26.1 48.5L23.9 48.5C23.8 48.5 23.7 48.4 23.7 48.3L23.7 46.1ZM4.2 46.1L4.2 48.3C4.2 48.4 4.1 48.5 3.9 48.5L1.8 48.5C1.6 48.5 1.5 48.4 1.5 48.3L1.5 46.1C1.5 46 1.6 45.9 1.8 45.9L3.9 45.9C4.1 45.9 4.2 46 4.2 46.1ZM4.2 23.9L4.2 26.1C4.2 26.2 4.1 26.3 3.9 26.3L1.8 26.3C1.6 26.3 1.5 26.2 1.5 26.1L1.5 23.9C1.5 23.8 1.6 23.7 1.8 23.7L3.9 23.7C4.1 23.7 4.2 23.8 4.2 23.9ZM4.2 3.9C4.2 4 4.1 4.1 3.9 4.1L1.8 4.1C1.6 4.1 1.5 4 1.5 3.9L1.5 1.7C1.5 1.6 1.6 1.5 1.8 1.5L3.9 1.5C4.1 1.5 4.2 1.6 4.2 1.7L4.2 3.9ZM26.3 3.9C26.3 4 26.2 4.1 26.1 4.1L23.9 4.1C23.8 4.1 23.7 4 23.7 3.9L23.7 1.7C23.7 1.6 23.8 1.5 23.9 1.5L26.1 1.5C26.2 1.5 26.3 1.6 26.3 1.7L26.3 3.9ZM48.5 23.9L48.5 26.1C48.5 26.2 48.4 26.3 48.2 26.3L46.1 26.3C45.9 26.3 45.8 26.2 45.8 26.1L45.8 23.9C45.8 23.8 45.9 23.7 46.1 23.7L48.2 23.7C48.4 23.7 48.5 23.8 48.5 23.9ZM45.8 3.9L45.8 1.7C45.8 1.6 45.9 1.5 46.1 1.5L48.2 1.5C48.4 1.5 48.5 1.6 48.5 1.7L48.5 3.9C48.5 4 48.4 4.1 48.2 4.1L46.1 4.1C45.9 4.1 45.8 4 45.8 3.9Z"/>
            <path d="M46.9 37.4C46.2 37.1 45.5 37.2 44.9 37.7L42.6 40.1C42.3 40.4 42.3 40.9 42.6 41.2 42.8 41.4 43.3 41.4 43.6 41.2L46 38.8C46.1 38.7 46.2 38.7 46.3 38.7 46.4 38.7 46.5 38.8 46.5 39L46.5 46.2C46.5 46.3 46.3 46.5 46.2 46.5L39 46.5C38.8 46.5 38.7 46.4 38.7 46.3 38.7 46.2 38.7 46.1 38.8 46L41.3 43.4C41.6 43.1 41.6 42.7 41.3 42.4 41.1 42.1 40.6 42.1 40.3 42.4L37.7 44.9C37.2 45.4 37.1 46.2 37.4 46.9 37.6 47.5 38.3 47.9 39 47.9L46.2 47.9C47.1 47.9 47.9 47.1 47.9 46.2L47.9 39C47.9 38.3 47.5 37.6 46.9 37.4L46.9 37.4Z"/>
            <path d="M10.5 10.1L29.1 10.1C29.5 10.1 29.9 9.8 29.9 9.4 29.9 9 29.5 8.6 29.1 8.6L10.5 8.6C9.6 8.6 8.8 9.4 8.8 10.3L8.8 16C8.8 16.4 9 16.9 9.3 17.2 9.7 17.5 10.1 17.7 10.5 17.7L13 17.7C14 17.7 14.7 16.9 14.7 16L14.7 14.9 22.1 14.9 22.1 35.5 16.5 35.5C15.6 35.5 14.8 36.2 14.8 37.2L14.8 39.7C14.8 40.6 15.6 41.4 16.5 41.4L23.4 41.4C23.8 41.4 24.1 41 24.1 40.6 24.1 40.2 23.8 39.9 23.4 39.9L16.5 39.9C16.4 39.9 16.3 39.8 16.3 39.7L16.3 37.2C16.3 37 16.4 36.9 16.5 36.9L22.8 36.9C23.2 36.9 23.5 36.6 23.5 36.2L23.5 14.1C23.5 13.7 23.2 13.4 22.8 13.4L14 13.4C13.6 13.4 13.3 13.7 13.3 14.1L13.3 16C13.3 16.1 13.2 16.2 13 16.2L10.5 16.2C10.5 16.2 10.4 16.2 10.4 16.2 10.3 16.1 10.3 16.1 10.3 16L10.3 10.3C10.3 10.2 10.4 10.1 10.5 10.1Z"/>
            <path d="M33.5 35.5L27.9 35.5 27.9 14.9 35.3 14.9 35.3 16C35.3 16.9 36 17.7 37 17.7L39.5 17.7C40.4 17.7 41.2 16.9 41.2 16L41.2 10.3C41.2 9.4 40.4 8.6 39.5 8.6L32.3 8.6C31.9 8.6 31.6 9 31.6 9.4 31.6 9.8 31.9 10.1 32.3 10.1L39.5 10.1C39.6 10.1 39.7 10.2 39.7 10.3L39.7 16C39.7 16.1 39.6 16.2 39.5 16.2L37 16.2C36.8 16.2 36.7 16.1 36.7 16L36.7 14.1C36.7 13.7 36.4 13.4 36 13.4L27.2 13.4C26.8 13.4 26.5 13.7 26.5 14.1L26.5 36.2C26.5 36.6 26.8 36.9 27.2 36.9L33.5 36.9C33.6 36.9 33.7 37 33.7 37.2L33.7 39.7C33.7 39.8 33.6 39.9 33.5 39.9L26.6 39.9C26.2 39.9 25.9 40.2 25.9 40.6 25.9 41 26.2 41.4 26.6 41.4L33.5 41.4C34.4 41.4 35.2 40.6 35.2 39.7L35.2 37.2C35.2 36.2 34.4 35.5 33.5 35.5L33.5 35.5Z"/>
            <path d="M30.6 28.5L31.1 28.5C31.5 28.5 31.8 28.1 31.8 27.7 31.8 27.3 31.5 27 31.1 27L30.6 27C30.2 27 29.9 27.3 29.9 27.7 29.9 28.1 30.2 28.5 30.6 28.5Z"/>
            <path d="M37.2 27L33 27C32.6 27 32.3 27.3 32.3 27.7 32.3 28.1 32.6 28.5 33 28.5L37.2 28.5C37.6 28.5 37.9 28.1 37.9 27.7 37.9 27.3 37.6 27 37.2 27Z"/>
            <path d="M30.6 30.9L37.2 30.9C37.6 30.9 37.9 30.6 37.9 30.2 37.9 29.8 37.6 29.4 37.2 29.4L30.6 29.4C30.2 29.4 29.9 29.8 29.9 30.2 29.9 30.6 30.2 30.9 30.6 30.9Z"/>
            <path d="M37.9 32.6C37.9 32.2 37.6 31.9 37.2 31.9L30.6 31.9C30.2 31.9 29.9 32.2 29.9 32.6 29.9 33 30.2 33.3 30.6 33.3L37.2 33.3C37.6 33.3 37.9 33 37.9 32.6Z"/>
        </g>
    </g>
</svg>
