<svg xmlns="http://www.w3.org/2000/svg" width="50" height="50" viewBox="0 0 50 50">
    <g fill="none">
        <g fill="#152945">
            <circle cx="31.7" cy="9.1" r="1"/>
            <circle cx="34.9" cy="11.3" r="1"/>
            <circle cx="15.1" cy="40.9" r="1"/>
            <path d="M47.2 33.4C47.1 33.8 47.3 34.3 47.7 34.5 47.8 34.5 47.9 34.5 48 34.5 48.3 34.5 48.6 34.3 48.7 34 49.6 31.8 50 29.5 50 27.2L50 22.8C50 12.4 41.5 3.9 31.1 3.9L14.6 3.9 14.6 0.8C14.6 0.5 14.4 0.2 14.1 0.1 13.8-0.1 13.5 0 13.3 0.2L0.3 10.6C0.1 10.8 0 11 0 11.2 0 11.5 0.1 11.7 0.3 11.8L2.4 13.6C0.8 16.4 0 19.6 0 22.8L0 27.2C0 37.6 8.5 46.1 18.9 46.1L35.4 46.1 35.4 49.2C35.4 49.5 35.6 49.8 35.9 49.9 36 50 36.1 50 36.2 50 36.4 50 36.6 49.9 36.7 49.8L49.7 39.4C49.9 39.2 50 39 50 38.8 50 38.5 49.9 38.3 49.7 38.2L36.7 27.7C36.5 27.5 36.2 27.5 35.9 27.6 35.6 27.8 35.4 28 35.4 28.4L35.4 31.5 18.9 31.5C16.5 31.5 14.6 29.6 14.6 27.2L14.6 25.7C14.6 25.3 14.2 24.9 13.8 24.9 13.3 24.9 13 25.3 13 25.7L13 27.2C13 30.4 15.6 33.1 18.9 33.1L36.2 33.1C36.7 33.1 37 32.7 37 32.3L37 30 47.9 38.8 37 47.5 37 45.3C37 44.8 36.7 44.5 36.2 44.5L18.9 44.5C9.4 44.5 1.6 36.7 1.6 27.2L1.6 22.8C1.6 19.9 2.3 17.1 3.7 14.6L13.3 22.3C13.5 22.5 13.8 22.5 14.1 22.4 14.4 22.2 14.6 22 14.6 21.6L14.6 18.5 31.1 18.5C33.5 18.5 35.4 20.4 35.4 22.8L35.4 24.3C35.4 24.7 35.8 25.1 36.2 25.1 36.7 25.1 37 24.7 37 24.3L37 22.8C37 19.6 34.4 16.9 31.1 16.9L13.8 16.9C13.3 16.9 13 17.3 13 17.7L13 20 2.1 11.2 13 2.5 13 4.7C13 5.2 13.3 5.5 13.8 5.5L31.1 5.5C40.6 5.5 48.4 13.3 48.4 22.8L48.4 27.2C48.4 29.3 48 31.4 47.2 33.4Z"/>
        </g>
    </g>
</svg>
