<svg xmlns="http://www.w3.org/2000/svg" width="96" height="64" viewBox="0 0 96 64">
    <g fill="none">
        <g fill="#152945">
            <path d="M12.4 45.3L8.9 41.3C5.5 37.5 3.3 32.4 2.8 27 2.8 26.2 2.1 25.5 1.3 25.6 0.5 25.7-0.1 26.5 0 27.4 0.6 33.5 3 39.3 6.9 43.6L10.4 47.5C10.6 47.8 11 48 11.4 48 11.7 48 12.1 47.8 12.4 47.5 12.9 46.9 12.9 45.9 12.4 45.3Z"/>
            <path d="M64.6 19.7C63.9 19 62.8 19 62.2 19.7L54.9 27C54.2 27.6 54.2 28.7 54.9 29.4 55.2 29.7 55.7 29.9 56.1 29.9 56.5 29.9 57 29.7 57.3 29.4L64.6 22.1C65.2 21.4 65.2 20.4 64.6 19.7Z"/>
            <path d="M68.9 28.2C68.4 27.6 67.4 27.6 66.9 28.2L57 38.1C56.4 38.6 56.4 39.6 57 40.1 57.2 40.4 57.6 40.5 58 40.5 58.3 40.5 58.7 40.4 59 40.1L68.9 30.2C69.5 29.6 69.5 28.7 68.9 28.2Z"/>
            <path d="M94.6 15.3C93.7 15.2 93 15.8 92.9 16.7 92.3 21.9 89.9 26.9 86.2 30.7L67 49.7C66.6 50.2 66 50.4 65.4 50.4 64.7 50.4 64.1 50.2 63.7 49.7 63.2 49.3 63 48.7 63 48 63 47.4 63.2 46.8 63.7 46.3 63.7 46.3 63.7 46.3 63.7 46.3L75.9 34.1C76.6 33.5 76.6 32.5 75.9 31.9 75.3 31.3 74.3 31.3 73.7 31.9L59.3 46.3C59 45.5 58.6 44.8 58 44.2L50.7 36.9 54.4 33.1C55 32.5 55 31.5 54.4 30.9 53.8 30.3 52.8 30.3 52.2 30.9L48.4 34.7 36.4 22.7C36.4 22.7 36.3 22.6 36.4 22.5 36.4 22.4 36.5 22.4 36.5 22.4L43.3 22.3C46.5 22.3 49.1 19.7 49.1 16.5 49.1 13.3 46.5 10.7 43.3 10.7 43.3 10.7 43.3 10.7 43.3 10.7L17 10.7C16.1 10.7 15.4 11.4 15.4 12.3 15.4 13.1 16.1 13.8 17 13.8 17 13.8 17 13.8 17 13.8L43.3 13.8C43.3 13.8 43.3 13.8 43.3 13.8 44.8 13.8 46 15 46 16.5 46 18 44.8 19.2 43.3 19.2L36.5 19.2C35.2 19.2 34 20 33.5 21.3 32.9 22.5 33.2 24 34.2 24.9L55.7 46.4C56.7 47.3 56.7 48.9 55.8 49.8L55.7 49.8C55.7 49.8 55.7 49.8 55.7 49.8 55.3 50.3 54.7 50.5 54 50.5 53.4 50.5 52.8 50.3 52.3 49.8L33.8 31.3C33.2 30.7 32.2 30.7 31.6 31.3 31 31.9 31 32.9 31.6 33.5L53.7 55.5C54.6 56.5 54.6 58 53.7 58.9 53.2 59.4 52.6 59.6 52 59.6 51.3 59.6 50.7 59.4 50.3 58.9L29.1 37.8C28.5 37.2 27.5 37.2 26.9 37.8 26.3 38.4 26.3 39.4 26.9 40L43.7 56.8C44.6 57.7 44.6 59.2 43.7 60.2 42.7 61.1 41.2 61.1 40.3 60.2L22.3 42.2C21.7 41.6 20.7 41.6 20.1 42.2 19.5 42.8 19.5 43.8 20.1 44.5L32.4 56.7C33.3 57.6 33.3 59.2 32.4 60.1 31.9 60.5 31.3 60.8 30.7 60.8 30 60.8 29.4 60.5 29 60.1L17.6 48.8C17 48.2 16 48.2 15.4 48.8 14.8 49.4 14.8 50.4 15.4 51L26.7 62.3C27.8 63.4 29.2 63.9 30.7 63.9 32.1 63.9 33.5 63.4 34.6 62.3 35.2 61.7 35.6 61 35.9 60.2L38.1 62.4C39.1 63.5 40.6 64 42 64 43.4 64 44.8 63.5 45.9 62.4 46.5 61.8 46.9 61.1 47.2 60.3L48 61.1C49.1 62.2 50.5 62.8 52 62.8 53.4 62.8 54.8 62.2 55.9 61.1 58 59 58 55.5 55.9 53.3L55.9 53.3C56.7 53.1 57.4 52.6 58 52 58 52 58 52 58 52L60.1 49.9C60.4 50.6 60.8 51.4 61.4 51.9 62.5 53 63.9 53.6 65.4 53.6 66.8 53.6 68.2 53 69.3 51.9L88.4 32.9C92.7 28.6 95.4 23 96 17 96.1 16.1 95.5 15.4 94.6 15.3Z"/>
            <path d="M84.2 18.4C83.8 17.3 82.8 16.8 81.9 17.2 79.2 18.4 76.4 18.7 73.6 17.9 72.7 17.7 71.7 18.3 71.5 19.4 71.3 20.5 71.9 21.6 72.8 21.9 74.1 22.2 75.4 22.4 76.8 22.4 78.9 22.4 81.1 21.9 83.2 21 84.1 20.6 84.5 19.4 84.2 18.4Z"/>
            <path d="M79.5 0L52.6 0C52.6 0 52.6 0 52.6 0 49.3 0 46.7 2.7 46.6 6L46.6 6.1C46.6 7.7 47.3 9.2 48.4 10.4 49.5 11.5 51 12.1 52.6 12.1L60 12.1 45.3 27.1C44.6 27.7 44.6 28.8 45.3 29.4 45.6 29.7 46 29.9 46.4 29.9 46.8 29.9 47.2 29.7 47.5 29.4L63.4 13.3C64.8 15.8 66.8 17.9 69.3 19.4 69.5 19.6 69.8 19.7 70.1 19.7 70.6 19.7 71.2 19.4 71.5 18.9 71.9 18.1 71.7 17.1 70.9 16.6 68.4 15.1 66.4 12.8 65.4 9.9 65.4 9.9 65.4 9.9 65.4 9.9 65.1 9.3 64.5 8.9 63.9 8.9L52.6 8.9C51.8 8.9 51.2 8.6 50.6 8.1 50.1 7.5 49.9 6.9 49.9 6.1L49.9 6C49.9 4.5 51.1 3.3 52.6 3.3 52.6 3.3 52.6 3.3 52.6 3.3L79.5 3.3C79.5 3.3 79.5 3.3 79.5 3.3 80.3 3.3 81.1 2.6 81.1 1.7 81.1 0.8 80.4 0 79.5 0Z"/>
        </g>
    </g>
</svg>
